<svg width="738.108" height="94.9" viewBox="0 0 738.108 94.9" xmlns="http://www.w3.org/2000/svg"><g id="svgGroup" stroke-linecap="round" fill-rule="nonzero" font-size="9pt" stroke="#fff" stroke-width="0.25mm" fill="white" style="stroke:#fff;stroke-width:0.25mm;fill:#fff"><path d="M 360 47.3 L 360 78.2 A 2.015 2.015 0 0 1 359.931 78.754 Q 359.753 79.375 359.119 79.541 A 2.063 2.063 0 0 1 358.6 79.6 L 354.6 79.6 A 2.015 2.015 0 0 1 354.046 79.531 Q 353.425 79.353 353.26 78.719 A 2.063 2.063 0 0 1 353.2 78.2 L 353.2 47.4 A 45.573 45.573 0 0 0 353.081 44.004 Q 352.882 41.344 352.35 39.25 Q 351.646 36.474 350.427 34.591 A 10.309 10.309 0 0 0 349.9 33.85 A 9.237 9.237 0 0 0 346.973 31.349 A 8.974 8.974 0 0 0 346 30.9 A 13.118 13.118 0 0 0 342.519 30.08 A 16.139 16.139 0 0 0 340.9 30 Q 332.7 30 328.35 33.9 Q 324 37.8 324 44.7 L 324 78.2 A 2.015 2.015 0 0 1 323.931 78.754 Q 323.753 79.375 323.119 79.541 A 2.063 2.063 0 0 1 322.6 79.6 L 318.6 79.6 A 2.015 2.015 0 0 1 318.046 79.531 Q 317.425 79.353 317.26 78.719 A 2.063 2.063 0 0 1 317.2 78.2 L 317.2 1.4 A 2.015 2.015 0 0 1 317.27 0.846 Q 317.448 0.225 318.082 0.06 A 2.063 2.063 0 0 1 318.6 0 L 322.6 0 A 2.015 2.015 0 0 1 323.154 0.07 Q 323.776 0.248 323.941 0.882 A 2.063 2.063 0 0 1 324 1.4 L 324 30.4 Q 326.8 27.2 330.95 25.75 A 23.261 23.261 0 0 1 334.661 24.811 Q 336.51 24.492 338.641 24.372 A 47.423 47.423 0 0 1 341.3 24.3 Q 351 24.3 355.5 30 A 17.938 17.938 0 0 1 358.329 35.354 Q 359.204 37.907 359.621 41.06 A 47.755 47.755 0 0 1 360 47.3 Z M 0.3 76.8 L 0.7 72.2 A 2.97 2.97 0 0 1 0.841 71.771 Q 1.034 71.311 1.35 71.1 Q 1.747 70.836 2.26 71.115 A 1.835 1.835 0 0 1 2.4 71.2 A 29.873 29.873 0 0 0 7.568 73.425 A 26.423 26.423 0 0 0 9.45 73.95 A 29.469 29.469 0 0 0 13.199 74.581 Q 15.264 74.8 17.6 74.8 A 21.857 21.857 0 0 0 22.899 74.19 A 15.959 15.959 0 0 0 29.55 70.8 A 13.032 13.032 0 0 0 33.891 63.045 A 19.388 19.388 0 0 0 34.2 59.5 Q 34.2 56.715 32.125 53.93 A 14.824 14.824 0 0 0 31.95 53.7 A 20.399 20.399 0 0 0 29.456 51.047 Q 27.825 49.581 25.7 48.2 Q 22.2 46 17.8 43.6 Q 13.4 41.2 9.4 38.35 A 32.179 32.179 0 0 1 4.515 34.101 A 28.067 28.067 0 0 1 2.7 31.95 Q 0 28.4 0 23.7 Q 0 18.9 2 15.25 Q 4 11.6 7.35 9.15 Q 10.7 6.7 15 5.4 Q 19.3 4.1 23.8 4.1 Q 27.289 4.1 30.058 4.46 A 33.203 33.203 0 0 1 30.7 4.55 A 37.776 37.776 0 0 1 34.029 5.212 A 50.257 50.257 0 0 1 37.2 6.1 A 2.874 2.874 0 0 1 37.718 6.326 Q 38.57 6.813 38.431 7.741 A 2.084 2.084 0 0 1 38.4 7.9 L 37.6 11.8 A 2.968 2.968 0 0 1 37.496 12.222 Q 37.107 13.389 35.901 12.701 A 2.283 2.283 0 0 1 35.9 12.7 A 23.633 23.633 0 0 0 32.798 11.507 A 19.2 19.2 0 0 0 30.45 10.95 Q 28.649 10.644 26.178 10.546 A 62.705 62.705 0 0 0 23.7 10.5 A 24.388 24.388 0 0 0 18.758 10.988 A 21.969 21.969 0 0 0 17.45 11.3 Q 14.5 12.1 12.35 13.7 Q 10.2 15.3 8.9 17.7 A 10.511 10.511 0 0 0 7.815 20.867 A 14.292 14.292 0 0 0 7.6 23.4 A 7.695 7.695 0 0 0 8.8 27.501 A 9.891 9.891 0 0 0 9.35 28.3 Q 11.1 30.6 13.65 32.6 Q 16.2 34.6 19.15 36.25 Q 22.1 37.9 24.5 39.3 Q 27.8 41.2 30.9 43.2 A 30.858 30.858 0 0 1 35.789 47.083 A 28.419 28.419 0 0 1 36.4 47.7 Q 38.8 50.2 40.3 53.2 A 14.076 14.076 0 0 1 41.623 57.525 A 18.106 18.106 0 0 1 41.8 60.1 A 24.312 24.312 0 0 1 41.8 60.178 Q 41.792 62.809 41.214 65.135 A 17.182 17.182 0 0 1 39.75 69 Q 37.7 72.9 34.3 75.6 Q 30.9 78.3 26.45 79.75 Q 22 81.2 17.2 81.2 Q 13.093 81.2 9.813 80.677 A 33.312 33.312 0 0 1 9.35 80.6 Q 6.386 80.085 2.793 78.978 A 78.223 78.223 0 0 1 1.6 78.6 Q 0 78.1 0.3 76.8 Z M 118.3 33.4 L 118.3 29.6 A 2.165 2.165 0 0 1 118.629 28.408 Q 118.88 28.015 119.324 27.718 A 3.445 3.445 0 0 1 119.7 27.5 Q 123.2 25.6 127.15 24.85 A 42.226 42.226 0 0 1 132.105 24.224 A 53.454 53.454 0 0 1 135.8 24.1 A 33.273 33.273 0 0 1 141.13 24.497 Q 147.13 25.473 150.4 28.85 Q 154.074 32.644 154.814 39.532 A 34.398 34.398 0 0 1 155 43.2 L 155 68.3 Q 155 71.101 155.088 73.335 A 89.109 89.109 0 0 0 155.1 73.65 A 95.925 95.925 0 0 0 155.352 77.648 A 87.28 87.28 0 0 0 155.4 78.2 A 2.015 2.015 0 0 1 155.331 78.754 Q 155.153 79.375 154.519 79.541 A 2.063 2.063 0 0 1 154 79.6 L 150.4 79.6 A 2.015 2.015 0 0 1 149.846 79.531 Q 149.225 79.353 149.06 78.719 A 2.063 2.063 0 0 1 149 78.2 L 149 70.5 Q 146.9 75.6 141.95 78.4 Q 137 81.2 131.2 81.2 A 27.373 27.373 0 0 1 125.679 80.68 Q 122.366 79.997 119.873 78.416 A 13.981 13.981 0 0 1 116.4 75.3 A 13.458 13.458 0 0 1 114.227 71.343 A 15.635 15.635 0 0 1 114 70.65 A 18.298 18.298 0 0 1 113.213 66.051 A 16.972 16.972 0 0 1 113.2 65.4 Q 113.2 59.3 116.05 54.9 A 15.531 15.531 0 0 1 121.105 50.073 A 21.56 21.56 0 0 1 124.8 48.3 Q 132 45.7 146.9 45.7 L 148.2 45.7 L 148.2 42.7 A 22.287 22.287 0 0 0 147.922 39.056 Q 147.31 35.369 145.35 33.1 A 8.433 8.433 0 0 0 141.977 30.787 Q 139.464 29.8 135.8 29.8 A 38.047 38.047 0 0 0 129.461 30.313 A 33.422 33.422 0 0 0 127.3 30.75 Q 123.3 31.7 119.7 33.9 A 1.571 1.571 0 0 1 119.434 34.03 Q 119.079 34.16 118.75 34.05 A 0.719 0.719 0 0 1 118.513 33.922 Q 118.355 33.79 118.314 33.566 A 0.928 0.928 0 0 1 118.3 33.4 Z M 378.7 33.4 L 378.7 29.6 A 2.165 2.165 0 0 1 379.029 28.408 Q 379.28 28.015 379.724 27.718 A 3.445 3.445 0 0 1 380.1 27.5 Q 383.6 25.6 387.55 24.85 A 42.226 42.226 0 0 1 392.505 24.224 A 53.454 53.454 0 0 1 396.2 24.1 A 33.273 33.273 0 0 1 401.53 24.497 Q 407.53 25.473 410.8 28.85 Q 414.474 32.644 415.214 39.532 A 34.398 34.398 0 0 1 415.4 43.2 L 415.4 68.3 Q 415.4 71.101 415.488 73.335 A 89.109 89.109 0 0 0 415.5 73.65 A 95.925 95.925 0 0 0 415.752 77.648 A 87.28 87.28 0 0 0 415.8 78.2 A 2.015 2.015 0 0 1 415.731 78.754 Q 415.553 79.375 414.919 79.541 A 2.063 2.063 0 0 1 414.4 79.6 L 410.8 79.6 A 2.015 2.015 0 0 1 410.246 79.531 Q 409.625 79.353 409.46 78.719 A 2.063 2.063 0 0 1 409.4 78.2 L 409.4 70.5 Q 407.3 75.6 402.35 78.4 Q 397.4 81.2 391.6 81.2 A 27.373 27.373 0 0 1 386.079 80.68 Q 382.766 79.997 380.273 78.416 A 13.981 13.981 0 0 1 376.8 75.3 A 13.458 13.458 0 0 1 374.627 71.343 A 15.635 15.635 0 0 1 374.4 70.65 A 18.298 18.298 0 0 1 373.613 66.051 A 16.972 16.972 0 0 1 373.6 65.4 Q 373.6 59.3 376.45 54.9 A 15.531 15.531 0 0 1 381.505 50.073 A 21.56 21.56 0 0 1 385.2 48.3 Q 392.4 45.7 407.3 45.7 L 408.6 45.7 L 408.6 42.7 A 22.287 22.287 0 0 0 408.322 39.056 Q 407.71 35.369 405.75 33.1 A 8.433 8.433 0 0 0 402.377 30.787 Q 399.864 29.8 396.2 29.8 A 38.047 38.047 0 0 0 389.861 30.313 A 33.422 33.422 0 0 0 387.7 30.75 Q 383.7 31.7 380.1 33.9 A 1.571 1.571 0 0 1 379.834 34.03 Q 379.479 34.16 379.15 34.05 A 0.719 0.719 0 0 1 378.913 33.922 Q 378.755 33.79 378.714 33.566 A 0.928 0.928 0 0 1 378.7 33.4 Z M 302 27.4 L 301.7 30.4 Q 301.6 31.2 301.1 31.4 A 1.375 1.375 0 0 1 300.725 31.494 Q 300.444 31.522 300.163 31.424 A 1.523 1.523 0 0 1 300.1 31.4 Q 297.6 30.5 295.1 30.15 A 32.731 32.731 0 0 0 292.904 29.924 Q 291.826 29.846 290.609 29.818 A 63.528 63.528 0 0 0 289.1 29.8 Q 278.505 29.8 277.587 37.476 A 12.847 12.847 0 0 0 277.5 39 A 5.29 5.29 0 0 0 278.258 41.699 A 7.405 7.405 0 0 0 279.05 42.8 Q 280.6 44.6 284.3 46.4 Q 287.5 48 290.6 49.45 Q 293.7 50.9 297.3 52.9 A 12.74 12.74 0 0 1 301.214 56.274 A 16.38 16.38 0 0 1 302.45 58.1 Q 304.5 61.6 304.5 65.7 A 16.848 16.848 0 0 1 304.194 68.99 A 12.452 12.452 0 0 1 302.9 72.6 Q 301.3 75.5 298.6 77.4 A 19.004 19.004 0 0 1 293.789 79.825 A 22.381 22.381 0 0 1 292.4 80.25 Q 288.9 81.2 285.2 81.2 A 83.078 83.078 0 0 1 283.175 81.177 Q 282.153 81.152 281.25 81.1 A 49.724 49.724 0 0 1 279.141 80.936 A 41.836 41.836 0 0 1 277.95 80.8 Q 276.4 80.6 274.8 80.3 Q 273.2 80 271.4 79.5 Q 270.094 79.034 270.094 77.87 A 2.214 2.214 0 0 1 270.1 77.7 L 270.5 74 A 2.64 2.64 0 0 1 270.59 73.561 Q 270.89 72.576 271.919 72.93 A 2.628 2.628 0 0 1 272.1 73 Q 278.2 75.5 284.7 75.5 A 18.095 18.095 0 0 0 288.629 75.096 A 12.674 12.674 0 0 0 293.6 72.85 A 8.386 8.386 0 0 0 297.046 66.796 A 10.748 10.748 0 0 0 297.1 65.7 A 7.275 7.275 0 0 0 296.261 62.352 A 10.206 10.206 0 0 0 295.15 60.65 Q 293.2 58.2 290.4 56.6 Q 287.3 54.9 284.05 53.35 Q 280.8 51.8 277.8 50.1 A 16.148 16.148 0 0 1 275.014 48.168 A 11.867 11.867 0 0 1 272.5 45.15 A 12.508 12.508 0 0 1 270.95 40.878 A 11.763 11.763 0 0 1 270.8 39 A 16.565 16.565 0 0 1 271.129 35.627 A 12.763 12.763 0 0 1 272.2 32.5 Q 273.6 29.7 276 27.8 A 15.471 15.471 0 0 1 280.62 25.306 A 18.113 18.113 0 0 1 281.6 25 A 24.435 24.435 0 0 1 287.064 24.132 A 27.936 27.936 0 0 1 288.4 24.1 Q 292.2 24.1 295 24.5 Q 297.8 24.9 300.6 25.7 Q 301.2 25.9 301.65 26.3 Q 302.077 26.68 302.009 27.329 A 1.913 1.913 0 0 1 302 27.4 Z M 55.6 93.5 L 55.6 26.9 A 2.015 2.015 0 0 1 55.67 26.346 Q 55.848 25.725 56.482 25.56 A 2.063 2.063 0 0 1 57 25.5 L 60.8 25.5 A 2.015 2.015 0 0 1 61.354 25.57 Q 61.976 25.748 62.141 26.382 A 2.063 2.063 0 0 1 62.2 26.9 L 61.7 34.4 A 14.853 14.853 0 0 1 66.504 28.563 A 19.259 19.259 0 0 1 68.45 27.3 A 20.514 20.514 0 0 1 75.714 24.864 A 26.355 26.355 0 0 1 79.5 24.6 A 27.781 27.781 0 0 1 84.005 24.947 Q 87.086 25.453 89.55 26.7 Q 93.7 28.8 96.35 32.45 A 23.25 23.25 0 0 1 99.326 38.089 A 28.938 28.938 0 0 1 100.25 41.1 A 42.35 42.35 0 0 1 101.422 48.994 A 49.691 49.691 0 0 1 101.5 51.8 A 46.588 46.588 0 0 1 100.934 59.199 A 38.973 38.973 0 0 1 100.05 63.3 Q 98.6 68.6 95.85 72.5 Q 93.1 76.4 89 78.65 Q 84.9 80.9 79.5 80.9 A 26.578 26.578 0 0 1 74.488 80.45 A 19.293 19.293 0 0 1 69 78.55 Q 64.6 76.2 62.3 72 L 62.3 93.5 A 2.015 2.015 0 0 1 62.231 94.054 Q 62.053 94.675 61.419 94.841 A 2.063 2.063 0 0 1 60.9 94.9 L 57.1 94.9 A 1.531 1.531 0 0 1 56.05 94.5 Q 55.6 94.1 55.6 93.5 Z M 467.4 93.5 L 467.4 26.9 A 2.015 2.015 0 0 1 467.47 26.346 Q 467.648 25.725 468.282 25.56 A 2.063 2.063 0 0 1 468.8 25.5 L 472.6 25.5 A 2.015 2.015 0 0 1 473.154 25.57 Q 473.776 25.748 473.941 26.382 A 2.063 2.063 0 0 1 474 26.9 L 473.5 34.4 A 14.853 14.853 0 0 1 478.304 28.563 A 19.259 19.259 0 0 1 480.25 27.3 A 20.514 20.514 0 0 1 487.514 24.864 A 26.355 26.355 0 0 1 491.3 24.6 A 27.781 27.781 0 0 1 495.805 24.947 Q 498.886 25.453 501.35 26.7 Q 505.5 28.8 508.15 32.45 A 23.25 23.25 0 0 1 511.126 38.089 A 28.938 28.938 0 0 1 512.05 41.1 A 42.35 42.35 0 0 1 513.222 48.994 A 49.691 49.691 0 0 1 513.3 51.8 A 46.588 46.588 0 0 1 512.734 59.199 A 38.973 38.973 0 0 1 511.85 63.3 Q 510.4 68.6 507.65 72.5 Q 504.9 76.4 500.8 78.65 Q 496.7 80.9 491.3 80.9 A 26.578 26.578 0 0 1 486.288 80.45 A 19.293 19.293 0 0 1 480.8 78.55 Q 476.4 76.2 474.1 72 L 474.1 93.5 A 2.015 2.015 0 0 1 474.031 94.054 Q 473.853 94.675 473.219 94.841 A 2.063 2.063 0 0 1 472.7 94.9 L 468.9 94.9 A 1.531 1.531 0 0 1 467.85 94.5 Q 467.4 94.1 467.4 93.5 Z M 257.5 54.5 L 223.7 54.5 Q 223.647 57.149 223.973 59.475 A 22.759 22.759 0 0 0 224.85 63.35 A 19.047 19.047 0 0 0 226.503 67.088 A 15.529 15.529 0 0 0 228.5 69.8 Q 230.9 72.4 234.25 73.8 Q 237.6 75.2 241.7 75.2 A 37.89 37.89 0 0 0 246.735 74.877 A 32.144 32.144 0 0 0 249.2 74.45 Q 252.7 73.7 255.7 72 A 2.878 2.878 0 0 1 255.921 71.909 Q 257 71.516 257 72.7 L 257 77.2 A 1.303 1.303 0 0 1 256.515 78.219 Q 256.32 78.389 256.045 78.53 A 3.32 3.32 0 0 1 255.9 78.6 Q 252.6 79.9 249 80.55 A 40.655 40.655 0 0 1 244.266 81.109 A 50.101 50.101 0 0 1 241.2 81.2 A 33.717 33.717 0 0 1 233.936 80.467 Q 229.224 79.427 225.749 76.913 A 19.126 19.126 0 0 1 222.6 74.05 A 22.392 22.392 0 0 1 218.308 66.447 Q 216.3 60.628 216.3 52.5 A 41.737 41.737 0 0 1 217.15 43.834 Q 218.614 36.936 222.6 32 Q 229.2 24.1 239.3 24.1 A 26.466 26.466 0 0 1 243.913 24.483 A 19.158 19.158 0 0 1 249 26.1 A 18.434 18.434 0 0 1 255.257 31.131 A 22.002 22.002 0 0 1 256 32.1 A 25.186 25.186 0 0 1 259.744 40.105 Q 260.677 43.446 260.968 47.39 A 50.393 50.393 0 0 1 261.1 51.1 Q 261.1 52.4 261.05 53.1 Q 261 53.8 260.7 54.1 Q 260.4 54.4 259.65 54.45 Q 258.9 54.5 257.5 54.5 Z M 709.2 79.6 L 697.1 79.6 A 19.718 19.718 0 0 1 696.374 79.588 Q 694.941 79.535 694.653 79.253 A 0.333 0.333 0 0 1 694.65 79.25 A 0.662 0.662 0 0 1 694.514 79.013 Q 694.3 78.441 694.3 76.8 L 694.3 8.4 A 19.718 19.718 0 0 1 694.313 7.674 Q 694.366 6.241 694.648 5.953 A 0.333 0.333 0 0 1 694.65 5.95 A 0.662 0.662 0 0 1 694.887 5.814 Q 695.46 5.6 697.1 5.6 L 712.1 5.6 Q 734.322 5.6 735.708 21.6 A 25.491 25.491 0 0 1 735.8 23.8 A 21.779 21.779 0 0 1 734.876 30.394 Q 732.307 38.494 722.6 40.7 A 32.354 32.354 0 0 1 727.689 42.619 Q 730.413 43.936 732.445 45.678 A 17.537 17.537 0 0 1 734.15 47.35 A 15.533 15.533 0 0 1 737.961 56.067 A 20.764 20.764 0 0 1 738.1 58.5 A 21.485 21.485 0 0 1 735.94 68.462 Q 731.351 77.364 717.016 79.151 A 63.363 63.363 0 0 1 709.2 79.6 Z M 634.8 79.6 L 624.5 79.6 A 19.718 19.718 0 0 1 623.774 79.588 Q 622.341 79.535 622.053 79.253 A 0.333 0.333 0 0 1 622.05 79.25 A 0.662 0.662 0 0 1 621.914 79.013 Q 621.7 78.441 621.7 76.8 L 621.7 8.4 A 19.718 19.718 0 0 1 621.713 7.674 Q 621.766 6.241 622.048 5.953 A 0.333 0.333 0 0 1 622.05 5.95 A 0.662 0.662 0 0 1 622.287 5.814 Q 622.86 5.6 624.5 5.6 L 640.2 5.6 A 55.821 55.821 0 0 1 651.157 6.606 Q 657.542 7.885 662.441 10.792 A 28.563 28.563 0 0 1 668.8 15.9 A 31.379 31.379 0 0 1 675.635 28.534 Q 677.014 33.349 677.316 39.104 A 62.962 62.962 0 0 1 677.4 42.4 A 46.242 46.242 0 0 1 676.55 51.459 A 36.525 36.525 0 0 1 674.2 59 A 33.606 33.606 0 0 1 668.152 68.374 A 31.238 31.238 0 0 1 665.3 71.1 Q 659.9 75.2 652.2 77.4 Q 644.5 79.6 634.8 79.6 Z M 208 27.4 L 207.7 30.6 Q 207.504 31.78 206.243 31.51 A 2.854 2.854 0 0 1 206.2 31.5 A 35.498 35.498 0 0 0 202.874 30.644 A 29.902 29.902 0 0 0 201.2 30.35 A 32.646 32.646 0 0 0 198.426 30.072 A 42.687 42.687 0 0 0 195.9 30 A 26.69 26.69 0 0 0 191.398 30.362 A 19.679 19.679 0 0 0 186.95 31.65 Q 183.1 33.3 180.5 36.3 A 19.263 19.263 0 0 0 177.134 41.934 A 22.844 22.844 0 0 0 176.6 43.45 A 28.563 28.563 0 0 0 175.415 49.657 A 34.572 34.572 0 0 0 175.3 52.5 Q 175.3 57 176.65 61.1 A 22.993 22.993 0 0 0 179.774 67.33 A 21.477 21.477 0 0 0 180.55 68.35 Q 183.1 71.5 186.75 73.35 A 17.044 17.044 0 0 0 192.265 75.02 A 21.615 21.615 0 0 0 195.1 75.2 A 67.444 67.444 0 0 0 197.461 75.161 Q 198.567 75.123 199.517 75.045 A 29.083 29.083 0 0 0 200.9 74.9 A 30.882 30.882 0 0 0 203.028 74.542 Q 204.109 74.323 205.297 74.015 A 53.383 53.383 0 0 0 206.1 73.8 A 3.785 3.785 0 0 1 206.364 73.739 Q 207.48 73.526 207.669 74.306 A 1.341 1.341 0 0 1 207.7 74.5 L 208 78.2 A 2.777 2.777 0 0 1 208.007 78.361 Q 208.018 79.717 206.6 80 A 64.222 64.222 0 0 1 202.213 80.581 A 56.962 56.962 0 0 1 200.8 80.7 Q 198.657 80.853 195.868 80.889 A 137.479 137.479 0 0 1 194.1 80.9 A 29.858 29.858 0 0 1 188.066 80.315 A 23.659 23.659 0 0 1 183.05 78.7 Q 178.2 76.5 174.85 72.7 A 26.032 26.032 0 0 1 170.301 65.291 A 30.455 30.455 0 0 1 169.7 63.7 A 33.152 33.152 0 0 1 167.964 54.722 A 38.572 38.572 0 0 1 167.9 52.5 A 34.338 34.338 0 0 1 168.643 45.246 A 29.492 29.492 0 0 1 169.8 41.25 A 26.111 26.111 0 0 1 174.079 33.681 A 24.593 24.593 0 0 1 175.25 32.35 Q 178.8 28.6 183.75 26.45 Q 188.7 24.3 194.9 24.3 Q 198.2 24.3 200.9 24.55 A 40.978 40.978 0 0 1 204.064 24.974 A 51.994 51.994 0 0 1 206.7 25.5 Q 208.095 25.899 208.001 27.388 A 3.166 3.166 0 0 1 208 27.4 Z M 639.9 11.8 L 629.1 11.8 L 629.1 73.3 L 635.2 73.3 A 56.683 56.683 0 0 0 648.371 71.908 Q 666.076 67.663 669.355 50.479 A 45.278 45.278 0 0 0 670.1 42 A 45.686 45.686 0 0 0 669.325 33.291 Q 668.349 28.272 666.145 24.412 A 22.445 22.445 0 0 0 661.3 18.5 Q 654.277 12.467 642.551 11.867 A 51.821 51.821 0 0 0 639.9 11.8 Z M 439.1 52.9 L 439.1 78.2 A 2.015 2.015 0 0 1 439.031 78.754 Q 438.853 79.375 438.219 79.541 A 2.063 2.063 0 0 1 437.7 79.6 L 433.8 79.6 A 2.015 2.015 0 0 1 433.246 79.531 Q 432.625 79.353 432.46 78.719 A 2.063 2.063 0 0 1 432.4 78.2 L 432.4 37.6 Q 432.4 34.38 432.36 32.24 A 139.044 139.044 0 0 0 432.35 31.75 Q 432.3 29.5 432.2 26.9 A 2.015 2.015 0 0 1 432.27 26.346 Q 432.448 25.725 433.082 25.56 A 2.063 2.063 0 0 1 433.6 25.5 L 437.3 25.5 A 2.015 2.015 0 0 1 437.854 25.57 Q 438.476 25.748 438.641 26.382 A 2.063 2.063 0 0 1 438.7 26.9 L 438.7 36.7 A 31.447 31.447 0 0 1 441.344 31.336 Q 443.053 28.623 445.133 26.927 A 12.252 12.252 0 0 1 453.1 24.1 Q 455.4 24.1 457.7 24.7 Q 458.3 24.9 458.75 25.35 Q 459.2 25.8 459.2 26.6 L 459.2 30.8 A 1.102 1.102 0 0 1 459.161 31.106 A 0.733 0.733 0 0 1 458.7 31.6 Q 458.232 31.788 457.763 31.624 A 1.523 1.523 0 0 1 457.7 31.6 Q 456.491 31.197 454.74 31.065 A 24.498 24.498 0 0 0 452.9 31 Q 446.679 31 443.144 36.16 A 17.379 17.379 0 0 0 441.9 38.3 Q 439.1 44 439.1 52.9 Z M 94.2 51.8 Q 94.2 47.7 93.4 43.85 A 21.667 21.667 0 0 0 91.924 39.266 A 18.739 18.739 0 0 0 90.7 37 Q 88.8 34 85.8 32.15 A 11.851 11.851 0 0 0 82.19 30.707 Q 80.41 30.3 78.3 30.3 A 16.62 16.62 0 0 0 74.754 30.661 A 12.611 12.611 0 0 0 71.2 32 Q 68.2 33.7 66.25 36.65 A 21.044 21.044 0 0 0 64.038 41.099 A 25.91 25.91 0 0 0 63.3 43.5 A 32.402 32.402 0 0 0 62.342 50.033 A 37.43 37.43 0 0 0 62.3 51.8 Q 62.3 59.035 63.993 64.072 A 19.276 19.276 0 0 0 66.65 69.35 A 14.768 14.768 0 0 0 71.021 73.418 Q 73.996 75.183 77.791 75.293 A 17.54 17.54 0 0 0 78.3 75.3 A 14.948 14.948 0 0 0 82.098 74.835 A 12.512 12.512 0 0 0 85.05 73.65 Q 88 72 90.05 68.9 A 20.969 20.969 0 0 0 92.121 64.826 A 27.508 27.508 0 0 0 93.15 61.5 A 35.633 35.633 0 0 0 93.97 56.621 A 48.129 48.129 0 0 0 94.2 51.8 Z M 506 51.8 Q 506 47.7 505.2 43.85 A 21.667 21.667 0 0 0 503.724 39.266 A 18.739 18.739 0 0 0 502.5 37 Q 500.6 34 497.6 32.15 A 11.851 11.851 0 0 0 493.99 30.707 Q 492.21 30.3 490.1 30.3 A 16.62 16.62 0 0 0 486.554 30.661 A 12.611 12.611 0 0 0 483 32 Q 480 33.7 478.05 36.65 A 21.044 21.044 0 0 0 475.838 41.099 A 25.91 25.91 0 0 0 475.1 43.5 A 32.402 32.402 0 0 0 474.142 50.033 A 37.43 37.43 0 0 0 474.1 51.8 Q 474.1 59.035 475.793 64.072 A 19.276 19.276 0 0 0 478.45 69.35 A 14.768 14.768 0 0 0 482.821 73.418 Q 485.796 75.183 489.591 75.293 A 17.54 17.54 0 0 0 490.1 75.3 A 14.948 14.948 0 0 0 493.898 74.835 A 12.512 12.512 0 0 0 496.85 73.65 Q 499.8 72 501.85 68.9 A 20.969 20.969 0 0 0 503.921 64.826 A 27.508 27.508 0 0 0 504.95 61.5 A 35.633 35.633 0 0 0 505.77 56.621 A 48.129 48.129 0 0 0 506 51.8 Z M 708.2 44.3 L 701.7 44.3 L 701.7 73.3 L 709.4 73.3 A 46.622 46.622 0 0 0 716.908 72.751 Q 730.149 70.578 730.678 59.811 A 18.565 18.565 0 0 0 730.7 58.9 A 16.033 16.033 0 0 0 730.119 54.453 A 11.473 11.473 0 0 0 725.3 47.9 Q 720.427 44.651 710.421 44.334 A 70.238 70.238 0 0 0 708.2 44.3 Z M 712.1 11.8 L 701.9 11.8 L 701.9 37.9 L 710.2 37.9 A 36.714 36.714 0 0 0 715.202 37.583 Q 720.651 36.831 723.85 34.3 A 11.711 11.711 0 0 0 728.266 26.28 A 17.099 17.099 0 0 0 728.4 24.1 A 12.989 12.989 0 0 0 727.251 18.436 Q 724.631 12.967 716.038 12.005 A 35.496 35.496 0 0 0 712.1 11.8 Z M 408.6 54.8 L 408.6 51.4 L 406.7 51.4 Q 401.1 51.2 396.75 51.85 A 49.035 49.035 0 0 0 393.692 52.401 Q 392.205 52.721 390.939 53.109 A 23.53 23.53 0 0 0 389.5 53.6 A 15.835 15.835 0 0 0 386.448 55.05 A 11.164 11.164 0 0 0 383.2 58.05 A 11.292 11.292 0 0 0 381.208 63.301 A 14.621 14.621 0 0 0 381.1 65.1 Q 381.1 67.6 381.9 69.75 A 7.555 7.555 0 0 0 383.004 71.766 A 6.518 6.518 0 0 0 384.4 73.1 Q 387.145 75.296 391.565 75.483 A 19.803 19.803 0 0 0 392.4 75.5 A 15.273 15.273 0 0 0 397.244 74.745 A 14.125 14.125 0 0 0 398.85 74.1 Q 401.8 72.7 404 70.1 A 16.539 16.539 0 0 0 406.31 66.467 A 21.625 21.625 0 0 0 407.4 63.65 Q 408.6 59.8 408.6 54.8 Z M 148.2 54.8 L 148.2 51.4 L 146.3 51.4 Q 140.7 51.2 136.35 51.85 A 49.035 49.035 0 0 0 133.292 52.401 Q 131.805 52.721 130.539 53.109 A 23.53 23.53 0 0 0 129.1 53.6 A 15.835 15.835 0 0 0 126.048 55.05 A 11.164 11.164 0 0 0 122.8 58.05 A 11.292 11.292 0 0 0 120.808 63.301 A 14.621 14.621 0 0 0 120.7 65.1 Q 120.7 67.6 121.5 69.75 A 7.555 7.555 0 0 0 122.604 71.766 A 6.518 6.518 0 0 0 124 73.1 Q 126.745 75.296 131.165 75.483 A 19.803 19.803 0 0 0 132 75.5 A 15.273 15.273 0 0 0 136.844 74.745 A 14.125 14.125 0 0 0 138.45 74.1 Q 141.4 72.7 143.6 70.1 A 16.539 16.539 0 0 0 145.91 66.467 A 21.625 21.625 0 0 0 147 63.65 Q 148.2 59.8 148.2 54.8 Z M 223.7 48.8 L 253.7 48.8 A 35.991 35.991 0 0 0 253.525 45.154 Q 253.325 43.2 252.9 41.5 A 19.073 19.073 0 0 0 250.811 36.36 A 17.869 17.869 0 0 0 250.4 35.7 A 12.933 12.933 0 0 0 246.859 31.887 Q 244.238 30.061 240.723 29.833 A 15.779 15.779 0 0 0 239.7 29.8 A 13.737 13.737 0 0 0 229.168 34.394 A 18.094 18.094 0 0 0 228 35.8 A 25.019 25.019 0 0 0 225.896 39.688 A 30.659 30.659 0 0 0 225 42 A 24.67 24.67 0 0 0 223.93 46.297 A 20.874 20.874 0 0 0 223.7 48.8 Z M 579.7 38.9 L 579.7 43.3 A 12.504 12.504 0 0 1 579.695 43.679 Q 579.674 44.384 579.565 44.533 A 0.141 0.141 0 0 1 579.55 44.55 A 0.267 0.267 0 0 1 579.45 44.605 Q 579.197 44.693 578.426 44.7 A 14.944 14.944 0 0 1 578.3 44.7 L 554.9 44.7 A 12.504 12.504 0 0 1 554.521 44.695 Q 553.817 44.673 553.667 44.564 A 0.141 0.141 0 0 1 553.65 44.55 A 0.267 0.267 0 0 1 553.596 44.45 Q 553.507 44.197 553.501 43.425 A 14.944 14.944 0 0 1 553.5 43.3 L 553.5 38.9 A 12.504 12.504 0 0 1 553.506 38.521 Q 553.527 37.817 553.636 37.667 A 0.141 0.141 0 0 1 553.65 37.65 A 0.267 0.267 0 0 1 553.75 37.595 Q 554.004 37.507 554.775 37.501 A 14.944 14.944 0 0 1 554.9 37.5 L 578.3 37.5 A 12.504 12.504 0 0 1 578.679 37.505 Q 579.384 37.527 579.534 37.636 A 0.141 0.141 0 0 1 579.55 37.65 A 0.267 0.267 0 0 1 579.605 37.75 Q 579.693 38.004 579.7 38.775 A 14.944 14.944 0 0 1 579.7 38.9 Z" vector-effect="non-scaling-stroke"/></g></svg>