<svg width="498.6" height="97" viewBox="0 0 498.6 97" xmlns="http://www.w3.org/2000/svg"><g id="svgGroup" stroke-linecap="round" fill-rule="evenodd" font-size="9pt" stroke="#000" stroke-width="0.25mm" fill="none" style="stroke:#000;stroke-width:0.25mm;fill:none"><path d="M 309.5 74 L 309.5 1 A 1.952 1.952 0 0 1 309.5 0.969 Q 309.516 0 310.5 0 A 1.952 1.952 0 0 1 310.531 0 Q 311.5 0.016 311.5 1 L 311.5 33.7 Q 311.5 33.8 311.6 33.8 A 0.764 0.764 0 0 0 311.612 33.8 Q 311.793 33.797 311.8 33.707 A 0.095 0.095 0 0 0 311.8 33.7 A 23.608 23.608 0 0 1 312.16 33.124 Q 315.015 28.691 319.9 25.45 Q 324.922 22.118 330.131 22.004 A 16.875 16.875 0 0 1 330.5 22 Q 339.327 22 343.345 26.81 A 11.63 11.63 0 0 1 343.5 27 A 10.994 10.994 0 0 1 343.562 27.079 Q 347.482 32.07 347.5 43.889 A 71.712 71.712 0 0 1 347.5 44 L 347.5 74 A 1.952 1.952 0 0 1 347.5 74.031 Q 347.484 75 346.5 75 A 1.952 1.952 0 0 1 346.469 75 Q 345.5 74.984 345.5 74 L 345.5 44 A 76.911 76.911 0 0 0 345.5 43.862 Q 345.479 32.19 341.909 28.11 A 7.634 7.634 0 0 0 341.9 28.1 A 10.136 10.136 0 0 0 341.671 27.848 Q 338.056 24 330.5 24 A 14.892 14.892 0 0 0 329.7 24.021 Q 323.748 24.342 317.882 29.429 A 33.087 33.087 0 0 0 317.8 29.5 Q 311.5 35 311.5 40 L 311.5 74 A 1.952 1.952 0 0 1 311.5 74.031 Q 311.484 75 310.5 75 A 1.952 1.952 0 0 1 310.469 75 Q 309.5 74.984 309.5 74 Z M 19.05 36.952 A 58.813 58.813 0 0 0 19.2 37 A 69.492 69.492 0 0 1 19.246 37.015 Q 29.033 40.186 33.48 44.827 A 16.868 16.868 0 0 1 33.55 44.9 Q 37.965 49.563 38 56.885 A 24.507 24.507 0 0 1 38 57 Q 38 65.17 33.446 69.513 A 13.431 13.431 0 0 1 33.3 69.65 A 13.279 13.279 0 0 1 33.221 69.723 Q 28.523 74 19.5 74 Q 9.3 74 1.6 68.8 A 0.738 0.738 0 0 0 1.578 68.786 Q 1.292 68.609 0.916 68.744 A 1.229 1.229 0 0 0 0.9 68.75 Q 0.5 68.9 0.5 69.3 A 3.036 3.036 0 0 0 0.5 69.341 Q 0.517 70.589 1.566 71.181 A 2.719 2.719 0 0 0 1.6 71.2 Q 9.24 75.963 19.341 76 A 43.192 43.192 0 0 0 19.5 76 Q 29.013 76 34.279 71.475 A 15.52 15.52 0 0 0 34.7 71.1 A 15.38 15.38 0 0 0 34.852 70.957 Q 39.959 66.106 40 57.143 A 31.754 31.754 0 0 0 40 57 Q 40 48.928 35.349 43.763 A 17.946 17.946 0 0 0 35.2 43.6 A 18.263 18.263 0 0 0 35.171 43.568 Q 30.401 38.425 19.945 35.047 A 70.807 70.807 0 0 0 19.8 35 A 57.118 57.118 0 0 1 19.69 34.965 Q 2.104 29.294 2.001 16.65 A 18.317 18.317 0 0 1 2 16.5 A 20.724 20.724 0 0 1 2 16.403 Q 2.063 3.053 19.364 3 A 45.104 45.104 0 0 1 19.5 3 Q 28.673 3 37.262 7.086 A 46.038 46.038 0 0 1 37.5 7.2 A 2.477 2.477 0 0 0 37.51 7.204 Q 38.489 7.59 38.5 6.622 A 1.956 1.956 0 0 0 38.5 6.6 A 2.388 2.388 0 0 0 38.5 6.565 Q 38.484 5.509 37.531 5.016 A 2.508 2.508 0 0 0 37.5 5 Q 28.9 1 19.5 1 Q 10.247 1 5.209 4.876 A 14.272 14.272 0 0 0 5.05 5 A 14.068 14.068 0 0 0 4.953 5.078 Q 0 9.073 0 16.5 Q 0 30.844 19.05 36.952 Z M 276.3 74 A 34.998 34.998 0 0 0 276.417 74 Q 283.691 73.975 287.887 70.921 A 12.594 12.594 0 0 0 288.05 70.8 A 12.572 12.572 0 0 0 288.149 70.725 Q 292.264 67.562 292.3 62.096 A 14.679 14.679 0 0 0 292.3 62 A 12.392 12.392 0 0 0 292.299 61.868 Q 292.253 57.498 289.117 54.269 A 13.535 13.535 0 0 0 289.05 54.2 A 7.766 7.766 0 0 0 288.999 54.149 Q 285.724 50.885 276.1 49 Q 267.161 47.212 263.253 43.994 A 11.832 11.832 0 0 1 263.2 43.95 A 11.706 11.706 0 0 1 263.094 43.861 Q 259.332 40.649 259.3 35.095 A 16.569 16.569 0 0 1 259.3 35 Q 259.3 29.153 263.868 25.613 A 14.514 14.514 0 0 1 263.95 25.55 Q 268.568 22.024 276.195 22 A 33.318 33.318 0 0 1 276.3 22 A 49.142 49.142 0 0 1 276.55 22.001 Q 284.201 22.04 291.302 24.462 A 46.328 46.328 0 0 1 291.7 24.6 A 2.609 2.609 0 0 1 291.734 24.613 Q 292.783 25.011 292.8 26.065 A 2.167 2.167 0 0 1 292.8 26.1 A 0.893 0.893 0 0 1 292.8 26.125 Q 292.789 26.502 292.458 26.695 A 0.93 0.93 0 0 1 292.45 26.7 A 1.121 1.121 0 0 1 292.421 26.716 Q 292.086 26.894 291.706 26.802 A 1.207 1.207 0 0 1 291.7 26.8 A 58.613 58.613 0 0 0 291.513 26.735 Q 283.666 24.018 276.397 24 A 39.13 39.13 0 0 0 276.3 24 A 33.064 33.064 0 0 0 276.191 24 Q 269.269 24.023 265.3 26.95 A 11.957 11.957 0 0 0 265.207 27.019 Q 261.3 29.96 261.3 35 Q 261.3 39.5 264.5 42.35 Q 267.683 45.185 276.404 46.98 A 74.448 74.448 0 0 0 276.5 47 Q 285.67 48.794 289.972 52.427 A 13.871 13.871 0 0 1 290 52.45 A 14.064 14.064 0 0 1 290.1 52.536 Q 294.3 56.169 294.3 62 Q 294.3 68.446 289.53 72.188 A 14.556 14.556 0 0 1 289.45 72.25 Q 284.6 76 276.3 76 Q 268.205 76 260.597 72.589 A 42.07 42.07 0 0 1 260.4 72.5 A 2.873 2.873 0 0 1 260.366 72.484 Q 259.303 71.984 259.3 70.906 A 2.167 2.167 0 0 1 259.3 70.9 Q 259.3 70.502 259.596 70.302 A 0.786 0.786 0 0 1 259.6 70.3 A 0.839 0.839 0 0 1 259.628 70.282 Q 259.913 70.108 260.285 70.196 A 1.258 1.258 0 0 1 260.3 70.2 Q 268.095 73.95 276.085 73.999 A 34.51 34.51 0 0 0 276.3 74 Z M 53.7 96 L 53.7 24 A 1.952 1.952 0 0 1 53.7 23.969 Q 53.716 23 54.7 23 A 1.952 1.952 0 0 1 54.731 23 Q 55.7 23.016 55.7 24 L 55.7 32.3 Q 55.7 32.4 55.8 32.4 A 0.382 0.382 0 0 0 55.812 32.4 Q 56 32.394 56 32.2 A 18.629 18.629 0 0 1 56.079 32.054 Q 58.564 27.48 63.352 24.777 A 21.937 21.937 0 0 1 63.4 24.75 A 20.16 20.16 0 0 1 64.175 24.337 Q 68.8 22 74.7 22 Q 84.72 22 90.163 28.889 A 19.674 19.674 0 0 1 90.25 29 A 19.765 19.765 0 0 1 90.377 29.165 Q 95.7 36.152 95.7 49 Q 95.7 61.844 90.247 68.889 A 20.233 20.233 0 0 1 90.2 68.95 Q 84.734 75.956 74.825 76 A 28.247 28.247 0 0 1 74.7 76 Q 68.522 76 63.742 73.437 A 20.155 20.155 0 0 1 63.4 73.25 A 21.855 21.855 0 0 1 63.25 73.165 Q 58.494 70.447 56.034 65.864 A 18.674 18.674 0 0 1 56 65.8 A 0.382 0.382 0 0 0 56 65.788 Q 55.994 65.6 55.8 65.6 Q 55.7 65.6 55.7 65.7 L 55.7 96 A 1.952 1.952 0 0 1 55.7 96.031 Q 55.684 97 54.7 97 A 1.952 1.952 0 0 1 54.669 97 Q 53.7 96.984 53.7 96 Z M 456.6 96 L 456.6 24 A 1.952 1.952 0 0 1 456.6 23.969 Q 456.616 23 457.6 23 A 1.952 1.952 0 0 1 457.631 23 Q 458.6 23.016 458.6 24 L 458.6 32.3 Q 458.6 32.4 458.7 32.4 A 0.382 0.382 0 0 0 458.712 32.4 Q 458.9 32.394 458.9 32.2 A 18.629 18.629 0 0 1 458.979 32.054 Q 461.464 27.48 466.252 24.777 A 21.937 21.937 0 0 1 466.3 24.75 A 20.16 20.16 0 0 1 467.075 24.337 Q 471.7 22 477.6 22 Q 487.62 22 493.063 28.889 A 19.674 19.674 0 0 1 493.15 29 A 19.765 19.765 0 0 1 493.277 29.165 Q 498.6 36.152 498.6 49 Q 498.6 61.844 493.147 68.889 A 20.233 20.233 0 0 1 493.1 68.95 Q 487.634 75.956 477.725 76 A 28.247 28.247 0 0 1 477.6 76 Q 471.422 76 466.642 73.437 A 20.155 20.155 0 0 1 466.3 73.25 A 21.855 21.855 0 0 1 466.15 73.165 Q 461.394 70.447 458.934 65.864 A 18.674 18.674 0 0 1 458.9 65.8 A 0.382 0.382 0 0 0 458.9 65.788 Q 458.894 65.6 458.7 65.6 Q 458.6 65.6 458.6 65.7 L 458.6 96 A 1.952 1.952 0 0 1 458.6 96.031 Q 458.584 97 457.6 97 A 1.952 1.952 0 0 1 457.569 97 Q 456.6 96.984 456.6 96 Z M 135.4 43 L 141.5 43 A 1.759 1.759 0 0 0 141.528 43 Q 142.395 42.986 142.4 42.11 A 1.777 1.777 0 0 0 142.4 42.1 L 142.4 38 A 35.14 35.14 0 0 0 142.4 37.884 Q 142.375 30.384 139.143 27.239 A 7.562 7.562 0 0 0 139.05 27.15 A 7.48 7.48 0 0 0 138.971 27.077 Q 135.603 24 127.4 24 A 54.544 54.544 0 0 0 127.178 24 Q 118.13 24.037 110.448 27.079 A 41.38 41.38 0 0 0 109.9 27.3 A 1.256 1.256 0 0 1 109.883 27.304 Q 109.508 27.393 109.221 27.213 A 0.842 0.842 0 0 1 109.2 27.2 A 0.762 0.762 0 0 1 109.174 27.182 Q 108.909 26.988 108.9 26.624 A 1.043 1.043 0 0 1 108.9 26.6 Q 108.9 25.5 110 25.1 A 43.389 43.389 0 0 1 110.501 24.909 Q 118.211 22.031 127.207 22 A 56.889 56.889 0 0 1 127.4 22 A 45.508 45.508 0 0 1 127.526 22 Q 136.627 22.025 140.5 25.7 A 9.293 9.293 0 0 1 140.651 25.846 Q 144.4 29.568 144.4 38 L 144.4 74 A 1.952 1.952 0 0 1 144.4 74.031 Q 144.384 75 143.4 75 A 1.952 1.952 0 0 1 143.369 75 Q 142.4 74.984 142.4 74 L 142.4 63.5 Q 142.4 63.4 142.3 63.4 A 0.382 0.382 0 0 0 142.288 63.4 Q 142.1 63.406 142.1 63.6 A 23.006 23.006 0 0 1 142.015 63.778 Q 139.316 69.352 134 72.65 A 21.244 21.244 0 0 1 133.661 72.856 Q 128.428 75.968 121.54 76 A 30.844 30.844 0 0 1 121.4 76 A 24.352 24.352 0 0 1 121.291 76 Q 114.465 75.969 110.511 72.11 A 12.9 12.9 0 0 1 110.4 72 A 12.895 12.895 0 0 1 110.276 71.874 Q 106.4 67.891 106.4 61 Q 106.4 58.3 107.1 55.95 A 10.355 10.355 0 0 1 107.133 55.84 Q 107.836 53.574 109.699 51.215 A 21.303 21.303 0 0 1 109.75 51.15 A 14.718 14.718 0 0 1 109.873 50.998 Q 111.797 48.645 114.8 46.95 A 15.5 15.5 0 0 1 114.873 46.909 Q 117.962 45.187 123.2 44.1 A 42.016 42.016 0 0 1 123.345 44.07 Q 128.594 43 135.4 43 Z M 389.7 43 L 395.8 43 A 1.759 1.759 0 0 0 395.828 43 Q 396.695 42.986 396.7 42.11 A 1.777 1.777 0 0 0 396.7 42.1 L 396.7 38 A 35.14 35.14 0 0 0 396.7 37.884 Q 396.675 30.384 393.443 27.239 A 7.562 7.562 0 0 0 393.35 27.15 A 7.48 7.48 0 0 0 393.271 27.077 Q 389.903 24 381.7 24 A 54.544 54.544 0 0 0 381.478 24 Q 372.43 24.037 364.748 27.079 A 41.38 41.38 0 0 0 364.2 27.3 A 1.256 1.256 0 0 1 364.183 27.304 Q 363.808 27.393 363.521 27.213 A 0.842 0.842 0 0 1 363.5 27.2 A 0.762 0.762 0 0 1 363.474 27.182 Q 363.209 26.988 363.2 26.624 A 1.043 1.043 0 0 1 363.2 26.6 Q 363.2 25.5 364.3 25.1 A 43.389 43.389 0 0 1 364.801 24.909 Q 372.511 22.031 381.507 22 A 56.889 56.889 0 0 1 381.7 22 A 45.508 45.508 0 0 1 381.826 22 Q 390.927 22.025 394.8 25.7 A 9.293 9.293 0 0 1 394.951 25.846 Q 398.7 29.568 398.7 38 L 398.7 74 A 1.952 1.952 0 0 1 398.7 74.031 Q 398.684 75 397.7 75 A 1.952 1.952 0 0 1 397.669 75 Q 396.7 74.984 396.7 74 L 396.7 63.5 Q 396.7 63.4 396.6 63.4 A 0.382 0.382 0 0 0 396.588 63.4 Q 396.4 63.406 396.4 63.6 A 23.006 23.006 0 0 1 396.315 63.778 Q 393.616 69.352 388.3 72.65 A 21.244 21.244 0 0 1 387.961 72.856 Q 382.728 75.968 375.84 76 A 30.844 30.844 0 0 1 375.7 76 A 24.352 24.352 0 0 1 375.591 76 Q 368.765 75.969 364.811 72.11 A 12.9 12.9 0 0 1 364.7 72 A 12.895 12.895 0 0 1 364.576 71.874 Q 360.7 67.891 360.7 61 Q 360.7 58.3 361.4 55.95 A 10.355 10.355 0 0 1 361.433 55.84 Q 362.136 53.574 363.999 51.215 A 21.303 21.303 0 0 1 364.05 51.15 A 14.718 14.718 0 0 1 364.173 50.998 Q 366.097 48.645 369.1 46.95 A 15.5 15.5 0 0 1 369.173 46.909 Q 372.262 45.187 377.5 44.1 A 42.016 42.016 0 0 1 377.645 44.07 Q 382.894 43 389.7 43 Z M 242.1 49 L 208.7 49 A 1.979 1.979 0 0 0 208.672 49 Q 207.813 49.012 207.8 49.777 A 1.392 1.392 0 0 0 207.8 49.8 Q 208.099 73.937 229.189 74 A 36.978 36.978 0 0 0 229.3 74 A 42.247 42.247 0 0 0 229.54 73.999 Q 237.108 73.956 243.9 71.2 A 1.317 1.317 0 0 1 243.916 71.196 Q 244.29 71.108 244.531 71.285 A 0.618 0.618 0 0 1 244.55 71.3 A 0.644 0.644 0 0 1 244.58 71.326 Q 244.799 71.524 244.8 71.896 A 1.291 1.291 0 0 1 244.8 71.9 Q 244.8 73.074 243.939 73.386 A 1.551 1.551 0 0 1 243.9 73.4 A 38.064 38.064 0 0 1 243.046 73.715 Q 236.613 76 229.3 76 Q 205.856 76 205.8 49.128 A 61.803 61.803 0 0 1 205.8 49 Q 205.8 42.673 207.119 37.764 A 31.38 31.38 0 0 1 207.15 37.65 A 39.878 39.878 0 0 1 207.182 37.534 Q 208.511 32.719 210.604 29.862 A 14.058 14.058 0 0 1 210.65 29.8 A 19.417 19.417 0 0 1 210.751 29.665 Q 212.792 26.961 215.586 25.231 A 17.691 17.691 0 0 1 215.8 25.1 A 26.785 26.785 0 0 1 215.894 25.044 Q 218.834 23.296 221.63 22.655 A 15.701 15.701 0 0 1 221.65 22.65 Q 224.5 22 227.8 22 Q 245.848 22 247.59 43.277 A 50.785 50.785 0 0 1 247.6 43.4 Q 247.8 45.7 246.15 47.35 A 6.376 6.376 0 0 1 246.098 47.401 Q 244.463 49 242.1 49 Z M 162.65 69.2 A 19.404 19.404 0 0 0 162.787 69.352 Q 168.828 76 180.1 76 A 42.615 42.615 0 0 0 180.277 76 Q 186.667 75.973 192.143 74.029 A 31.917 31.917 0 0 0 192.5 73.9 Q 193.6 73.5 193.6 72.4 A 1.964 1.964 0 0 0 193.6 72.382 Q 193.591 71.41 192.613 71.795 A 2.463 2.463 0 0 0 192.6 71.8 A 36.439 36.439 0 0 1 192.286 71.913 Q 186.524 73.967 180.303 73.999 A 38.334 38.334 0 0 1 180.1 74 Q 158.6 74 158.6 49 A 51.056 51.056 0 0 1 158.6 48.873 Q 158.612 44.222 159.472 40.325 A 32.033 32.033 0 0 1 159.5 40.2 A 28.214 28.214 0 0 1 159.51 40.158 Q 160.39 36.273 162.402 32.483 A 35.412 35.412 0 0 1 162.5 32.3 A 14.492 14.492 0 0 1 162.585 32.145 Q 164.652 28.416 168.72 26.268 A 18.234 18.234 0 0 1 168.85 26.2 Q 173.05 24.026 178.96 24 A 32.573 32.573 0 0 1 179.1 24 A 40.723 40.723 0 0 1 179.354 24.001 Q 185.709 24.04 191.612 26.065 A 38.563 38.563 0 0 1 192 26.2 Q 192.388 26.394 192.729 26.211 A 0.859 0.859 0 0 0 192.75 26.2 A 0.93 0.93 0 0 0 192.758 26.195 Q 193.089 26.002 193.1 25.625 A 0.893 0.893 0 0 0 193.1 25.6 A 2.167 2.167 0 0 0 193.1 25.565 Q 193.083 24.511 192.034 24.113 A 2.609 2.609 0 0 0 192 24.1 A 35.495 35.495 0 0 0 191.66 23.983 Q 185.899 22.032 179.315 22.001 A 45.196 45.196 0 0 0 179.1 22 A 33.302 33.302 0 0 0 178.977 22 Q 168.45 22.039 162.592 28.743 A 20.106 20.106 0 0 0 162.5 28.85 Q 156.6 35.7 156.6 49 A 59.123 59.123 0 0 0 156.6 49.13 Q 156.629 62.433 162.65 69.2 Z M 414.4 74 L 414.4 24 A 1.952 1.952 0 0 1 414.4 23.969 Q 414.416 23 415.4 23 A 1.952 1.952 0 0 1 415.431 23 Q 416.4 23.016 416.4 24 L 416.4 37.6 Q 416.4 37.7 416.5 37.7 Q 416.6 37.7 416.6 37.6 Q 419.468 30.875 425.613 26.986 A 25.563 25.563 0 0 1 425.75 26.9 Q 431.948 23.032 440.261 23 A 36.056 36.056 0 0 1 440.4 23 L 441.4 23 A 1.952 1.952 0 0 1 441.431 23 Q 442.4 23.016 442.4 24 A 1.952 1.952 0 0 1 442.4 24.031 Q 442.384 25 441.4 25 L 440.4 25 Q 429.818 25 423.123 31.428 A 23.515 23.515 0 0 0 423.1 31.45 A 23.695 23.695 0 0 0 422.996 31.551 Q 416.446 37.934 416.4 47.86 A 30.335 30.335 0 0 0 416.4 48 L 416.4 74 A 1.952 1.952 0 0 1 416.4 74.031 Q 416.384 75 415.4 75 A 1.952 1.952 0 0 1 415.369 75 Q 414.4 74.984 414.4 74 Z M 55.7 40.5 L 55.7 57.5 Q 55.7 64.345 61.015 69.124 A 20.149 20.149 0 0 0 61.1 69.2 A 19.095 19.095 0 0 0 61.269 69.349 Q 66.612 73.986 74.65 74 A 27.96 27.96 0 0 0 74.7 74 A 26.107 26.107 0 0 0 74.843 74 Q 83.938 73.95 88.8 67.55 Q 93.7 61.1 93.7 49 A 62.165 62.165 0 0 0 93.7 48.856 Q 93.672 36.668 88.854 30.355 A 23.901 23.901 0 0 0 88.85 30.35 A 17.217 17.217 0 0 0 88.774 30.251 Q 83.927 24 74.7 24 Q 66.5 24 61.1 28.8 A 20.146 20.146 0 0 0 61.016 28.875 Q 55.745 33.613 55.7 40.384 A 17.554 17.554 0 0 0 55.7 40.5 Z M 458.6 40.5 L 458.6 57.5 Q 458.6 64.345 463.915 69.124 A 20.149 20.149 0 0 0 464 69.2 A 19.095 19.095 0 0 0 464.169 69.349 Q 469.512 73.986 477.55 74 A 27.96 27.96 0 0 0 477.6 74 A 26.107 26.107 0 0 0 477.743 74 Q 486.838 73.95 491.7 67.55 Q 496.6 61.1 496.6 49 A 62.165 62.165 0 0 0 496.6 48.856 Q 496.572 36.668 491.754 30.355 A 23.901 23.901 0 0 0 491.75 30.35 A 17.217 17.217 0 0 0 491.674 30.251 Q 486.827 24 477.6 24 Q 469.4 24 464 28.8 A 20.146 20.146 0 0 0 463.916 28.875 Q 458.645 33.613 458.6 40.384 A 17.554 17.554 0 0 0 458.6 40.5 Z M 208.8 47 L 244.8 47 A 1.759 1.759 0 0 0 244.828 47 Q 245.695 46.986 245.7 46.11 A 1.777 1.777 0 0 0 245.7 46.1 Q 245.002 24.068 227.906 24 A 26.643 26.643 0 0 0 227.8 24 A 31.475 31.475 0 0 0 227.654 24 Q 209.145 24.086 207.907 45.981 A 52.296 52.296 0 0 0 207.9 46.1 A 1.759 1.759 0 0 0 207.9 46.128 Q 207.914 46.995 208.79 47 A 1.777 1.777 0 0 0 208.8 47 Z M 142.4 54 L 142.4 45.9 A 1.759 1.759 0 0 0 142.4 45.872 Q 142.386 45.005 141.51 45 A 1.777 1.777 0 0 0 141.5 45 L 135.4 45 A 90.81 90.81 0 0 0 135.242 45 Q 108.4 45.047 108.4 61 Q 108.4 66.972 111.707 70.404 A 11.001 11.001 0 0 0 111.85 70.55 Q 115.272 73.972 121.302 74 A 21.45 21.45 0 0 0 121.4 74 A 29.199 29.199 0 0 0 121.542 74 Q 130.546 73.956 136.45 68.35 A 21.281 21.281 0 0 0 136.543 68.262 Q 142.382 62.649 142.4 54.052 A 25.414 25.414 0 0 0 142.4 54 Z M 396.7 54 L 396.7 45.9 A 1.759 1.759 0 0 0 396.7 45.872 Q 396.686 45.005 395.81 45 A 1.777 1.777 0 0 0 395.8 45 L 389.7 45 A 90.81 90.81 0 0 0 389.542 45 Q 362.7 45.047 362.7 61 Q 362.7 66.972 366.007 70.404 A 11.001 11.001 0 0 0 366.15 70.55 Q 369.572 73.972 375.602 74 A 21.45 21.45 0 0 0 375.7 74 A 29.199 29.199 0 0 0 375.842 74 Q 384.846 73.956 390.75 68.35 A 21.281 21.281 0 0 0 390.843 68.262 Q 396.682 62.649 396.7 54.052 A 25.414 25.414 0 0 0 396.7 54 Z" vector-effect="non-scaling-stroke"/></g></svg>