<?xml version="1.0" standalone="no"?>
<!DOCTYPE svg PUBLIC "-//W3C//DTD SVG 20010904//EN"
 "http://www.w3.org/TR/2001/REC-SVG-20010904/DTD/svg10.dtd">
<svg version="1.0" xmlns="http://www.w3.org/2000/svg"
 width="512.000000pt" height="512.000000pt" viewBox="0 0 512.000000 512.000000"
 preserveAspectRatio="xMidYMid meet">

<g transform="translate(0.000000,512.000000) scale(0.100000,-0.100000)"
fill="#000000" stroke="none">
<path d="M3141 4943 c-12 -10 -161 -259 -331 -553 -307 -531 -309 -535 -346
-543 -54 -11 -146 -63 -187 -105 -20 -20 -69 -92 -110 -159 l-74 -122 -106
107 -106 107 39 42 c55 58 53 81 -12 149 l-52 56 29 56 c43 83 129 165 216
207 41 19 79 35 86 35 23 0 53 43 53 75 0 41 -27 66 -120 109 -127 58 -182 71
-305 70 -91 -1 -123 -5 -185 -27 -67 -22 -131 -54 -182 -89 -14 -10 -24 -5
-62 30 -71 66 -78 63 -232 -89 -73 -72 -135 -142 -138 -155 -7 -28 16 -79 39
-88 47 -18 68 -6 165 89 l97 96 222 -227 222 -227 -253 -254 -253 -253 -222
222 -222 222 60 64 c33 35 64 75 69 88 12 30 -1 67 -32 88 -45 32 -65 22 -175
-86 -58 -57 -109 -113 -114 -125 -11 -30 4 -70 42 -108 l29 -31 -54 -53 -55
-54 -42 37 c-72 61 -82 57 -241 -102 -115 -115 -138 -143 -138 -167 0 -25 44
-73 308 -337 264 -264 312 -308 337 -308 24 0 52 23 167 138 159 159 163 169
102 241 l-37 42 54 55 53 54 31 -29 c35 -35 78 -53 102 -44 10 3 47 34 83 69
l65 64 164 -164 163 -163 -86 -141 c-89 -146 -99 -178 -71 -219 21 -29 69 -39
99 -19 13 8 167 253 342 543 342 568 371 608 457 633 88 24 176 1 236 -62 17
-18 360 -577 762 -1243 1141 -1889 1052 -1737 1057 -1806 6 -76 -16 -135 -69
-188 -69 -68 -87 -71 -481 -71 l-349 0 -24 -25 c-27 -26 -31 -51 -14 -89 21
-45 42 -47 430 -44 l364 3 66 31 c188 89 279 284 223 475 -10 32 -91 179 -201
363 -181 301 -192 325 -151 326 19 0 74 61 94 105 75 160 -35 337 -211 339
-48 1 -72 -5 -113 -26 l-51 -27 -37 62 c-21 34 -39 65 -41 69 -2 3 71 49 161
102 178 104 212 114 247 74 42 -48 342 -583 342 -610 0 -37 -22 -60 -114 -113
-88 -52 -106 -80 -84 -132 25 -58 75 -58 180 3 44 26 92 58 108 72 68 64 90
188 46 273 -51 103 -333 586 -355 609 l-23 25 224 129 c282 163 276 154 187
306 -56 97 -98 121 -149 85 -35 -25 -39 -68 -9 -124 19 -37 22 -51 13 -58 -32
-25 -839 -485 -852 -487 -10 0 -58 68 -129 185 l-114 186 176 176 177 176 52
-14 c240 -63 498 9 679 189 182 183 253 439 189 687 -32 124 -72 165 -134 140
-41 -18 -318 -300 -326 -334 -13 -50 42 -105 93 -92 14 3 70 49 122 101 53 52
99 91 103 87 13 -12 7 -145 -9 -207 -28 -108 -72 -185 -154 -266 -87 -87 -165
-130 -283 -154 -95 -20 -119 -20 -214 0 -118 24 -196 67 -283 154 -90 90 -131
168 -157 296 -16 82 -16 94 -1 182 48 280 273 471 555 472 39 0 74 -4 77 -8 3
-5 -79 -91 -181 -193 -185 -184 -214 -221 -206 -263 6 -30 372 -394 398 -396
60 -6 95 21 95 72 0 29 -19 51 -152 185 l-153 153 217 217 c118 120 219 228
223 241 19 64 -39 106 -187 136 -375 77 -746 -163 -839 -544 -18 -74 -16 -260
4 -330 l16 -55 -117 -117 c-64 -65 -119 -118 -122 -118 -6 1 -170 272 -170
282 0 3 24 11 53 18 65 15 95 34 108 67 8 23 3 41 -36 121 -25 51 -45 98 -45
102 0 5 30 18 68 30 82 25 88 28 102 64 10 26 6 40 -36 128 -26 54 -46 100
-43 102 2 2 38 14 79 27 108 35 111 43 66 210 -19 72 -43 140 -52 150 -27 30
-91 22 -117 -13 -21 -27 -21 -29 -2 -105 10 -43 20 -83 22 -89 2 -7 -27 -20
-74 -32 -82 -22 -123 -54 -123 -93 0 -11 21 -60 46 -110 25 -50 43 -93 41 -95
-2 -3 -35 -13 -72 -24 -37 -11 -76 -27 -86 -36 -31 -28 -23 -76 26 -174 32
-64 41 -90 31 -90 -8 0 -21 -3 -29 -6 -11 -4 -38 33 -98 133 -96 160 -159 231
-239 271 l-57 29 266 461 266 461 35 -21 c19 -11 88 -50 153 -86 l117 -65 -6
-78 c-8 -97 -1 -125 36 -144 35 -18 71 -12 96 16 23 25 41 238 24 279 -9 21
-63 57 -233 156 -122 70 -233 130 -247 132 -15 2 -35 -4 -49 -15z m-1219 -636
l38 -12 -59 -47 c-33 -26 -81 -78 -107 -115 -26 -37 -50 -71 -54 -75 -3 -4
-47 34 -98 85 l-93 93 49 27 c96 52 237 71 324 44z m-3 -901 l85 -85 -81 -133
c-45 -73 -85 -134 -90 -135 -4 -2 -71 60 -148 137 l-140 140 109 109 110 110
35 -29 c20 -16 74 -67 120 -114z m-1059 -521 l-55 -55 -224 224 -224 224 53
57 54 56 225 -225 226 -226 -55 -55z m2779 -97 c42 -21 83 -38 93 -38 9 0 19
-4 22 -8 5 -9 -171 -189 -177 -181 -3 2 -41 64 -86 138 l-82 134 32 33 32 34
45 -37 c25 -20 79 -54 121 -75z m640 -1174 c35 -45 24 -85 -30 -115 -25 -13
-29 -10 -64 54 -35 66 -26 87 35 87 30 0 43 -6 59 -26z"/>
<path d="M2480 2871 c-113 -37 -195 -124 -219 -232 -11 -49 43 -1115 60 -1180
13 -53 62 -114 116 -146 41 -24 59 -28 123 -28 64 0 82 4 123 28 60 36 103 94
117 160 18 87 70 1104 59 1161 -17 94 -86 178 -178 219 -49 22 -160 32 -201
18z m167 -186 c13 -9 31 -32 40 -51 16 -32 15 -62 -6 -467 -12 -237 -25 -443
-27 -457 -6 -24 -6 -24 -21 10 -8 19 -26 78 -41 130 -25 93 -25 105 -30 482
l-4 387 32 -9 c18 -5 43 -16 57 -25z"/>
<path d="M524 2469 c-25 -13 -356 -580 -362 -620 -3 -17 4 -34 20 -51 12 -14
162 -105 333 -203 171 -97 315 -182 321 -189 8 -8 -42 -98 -192 -345 -225
-371 -241 -407 -232 -528 12 -150 88 -262 226 -330 l76 -38 1325 -3 c937 -2
1334 1 1352 8 51 21 63 87 24 125 l-24 25 -1309 0 c-1454 0 -1364 -4 -1437 67
-21 20 -46 55 -56 77 -22 48 -25 133 -5 179 7 18 230 392 496 832 266 440 485
808 488 817 13 52 -50 108 -101 89 -30 -12 -43 -29 -127 -166 -40 -66 -74
-122 -76 -124 -2 -2 -153 83 -336 188 -183 106 -344 194 -358 196 -14 3 -35 0
-46 -6z m164 -235 c17 -10 32 -23 32 -28 0 -5 -27 -55 -60 -112 -70 -119 -77
-159 -34 -193 60 -47 98 -21 180 124 31 55 58 101 59 103 4 4 135 -73 135 -80
0 -3 -27 -52 -60 -108 -77 -130 -82 -150 -42 -190 61 -61 98 -39 183 109 41
73 67 107 76 104 7 -3 13 -10 13 -15 0 -9 -210 -366 -232 -394 -6 -8 -91 36
-281 145 -150 87 -280 162 -289 167 -15 8 -4 32 89 194 57 102 111 195 120
208 l14 23 32 -19 c18 -11 47 -28 65 -38z"/>
<path d="M2482 1107 c-53 -17 -128 -90 -146 -144 -33 -97 -15 -175 59 -248
102 -103 243 -101 338 5 91 101 89 235 -6 328 -66 65 -158 87 -245 59z"/>
</g>
</svg>
